<svg width="640" height="80" viewBox="0 0 640 80" fill="none" xmlns="http://www.w3.org/2000/svg">
<path d="M16.7944 5.14446C-18.0105 24.6103 7.03951 80.6724 39.7681 62.3678C55.4625 53.5902 70.6037 23.9147 79.4887 5.11776C62.9923 0.516298 32.4888 -3.6332 16.7944 5.14446Z" fill="#FC2D81"/>
<path d="M63.2056 74.8555C98.0105 55.3897 72.9605 -0.672421 40.232 17.6322C24.5375 26.4098 9.39635 56.0852 0.511268 74.8822C17.0077 79.4837 47.5112 83.6332 63.2056 74.8555Z" fill="#386FFE"/>
<path d="M133.325 67.75C129.275 67.75 125.35 67.175 121.55 66.025C117.8 64.875 114.825 63.35 112.625 61.45L116 53.875C118.15 55.575 120.775 56.975 123.875 58.075C127.025 59.125 130.175 59.65 133.325 59.65C137.225 59.65 140.125 59.025 142.025 57.775C143.975 56.525 144.95 54.875 144.95 52.825C144.95 51.325 144.4 50.1 143.3 49.15C142.25 48.15 140.9 47.375 139.25 46.825C137.6 46.275 135.35 45.65 132.5 44.95C128.5 44 125.25 43.05 122.75 42.1C120.3 41.15 118.175 39.675 116.375 37.675C114.625 35.625 113.75 32.875 113.75 29.425C113.75 26.525 114.525 23.9 116.075 21.55C117.675 19.15 120.05 17.25 123.2 15.85C126.4 14.45 130.3 13.75 134.9 13.75C138.1 13.75 141.25 14.15 144.35 14.95C147.45 15.75 150.125 16.9 152.375 18.4L149.3 25.975C147 24.625 144.6 23.6 142.1 22.9C139.6 22.2 137.175 21.85 134.825 21.85C130.975 21.85 128.1 22.5 126.2 23.8C124.35 25.1 123.425 26.825 123.425 28.975C123.425 30.475 123.95 31.7 125 32.65C126.1 33.6 127.475 34.35 129.125 34.9C130.775 35.45 133.025 36.075 135.875 36.775C139.775 37.675 142.975 38.625 145.475 39.625C147.975 40.575 150.1 42.05 151.85 44.05C153.65 46.05 154.55 48.75 154.55 52.15C154.55 55.05 153.75 57.675 152.15 60.025C150.6 62.375 148.225 64.25 145.025 65.65C141.825 67.05 137.925 67.75 133.325 67.75ZM188.743 67.75C183.393 67.75 178.568 66.6 174.268 64.3C169.968 61.95 166.593 58.725 164.143 54.625C161.693 50.475 160.468 45.85 160.468 40.75C160.468 35.65 161.693 31.05 164.143 26.95C166.593 22.8 169.968 19.575 174.268 17.275C178.568 14.925 183.393 13.75 188.743 13.75C194.093 13.75 198.918 14.925 203.218 17.275C207.518 19.575 210.893 22.775 213.343 26.875C215.793 30.975 217.018 35.6 217.018 40.75C217.018 45.9 215.793 50.525 213.343 54.625C210.893 58.725 207.518 61.95 203.218 64.3C198.918 66.6 194.093 67.75 188.743 67.75ZM188.743 59.2C192.243 59.2 195.393 58.425 198.193 56.875C200.993 55.275 203.193 53.075 204.793 50.275C206.393 47.425 207.193 44.25 207.193 40.75C207.193 37.25 206.393 34.1 204.793 31.3C203.193 28.45 200.993 26.25 198.193 24.7C195.393 23.1 192.243 22.3 188.743 22.3C185.243 22.3 182.093 23.1 179.293 24.7C176.493 26.25 174.293 28.45 172.693 31.3C171.093 34.1 170.293 37.25 170.293 40.75C170.293 44.25 171.093 47.425 172.693 50.275C174.293 53.075 176.493 55.275 179.293 56.875C182.093 58.425 185.243 59.2 188.743 59.2ZM273.668 14.5L250.793 67H241.193L218.243 14.5H228.818L246.293 55L263.918 14.5H273.668ZM311.574 54.85H285.324L280.149 67H270.099L293.724 14.5H303.324L327.024 67H316.824L311.574 54.85ZM308.349 47.2L298.449 24.25L288.624 47.2H308.349ZM378.728 67.75C373.428 67.75 368.628 66.6 364.328 64.3C360.078 61.95 356.728 58.725 354.278 54.625C351.878 50.525 350.678 45.9 350.678 40.75C350.678 35.6 351.903 30.975 354.353 26.875C356.803 22.775 360.153 19.575 364.403 17.275C368.703 14.925 373.503 13.75 378.803 13.75C383.103 13.75 387.028 14.5 390.578 16C394.128 17.5 397.128 19.675 399.578 22.525L393.278 28.45C389.478 24.35 384.803 22.3 379.253 22.3C375.653 22.3 372.428 23.1 369.578 24.7C366.728 26.25 364.503 28.425 362.903 31.225C361.303 34.025 360.503 37.2 360.503 40.75C360.503 44.3 361.303 47.475 362.903 50.275C364.503 53.075 366.728 55.275 369.578 56.875C372.428 58.425 375.653 59.2 379.253 59.2C384.803 59.2 389.478 57.125 393.278 52.975L399.578 58.975C397.128 61.825 394.103 64 390.503 65.5C386.953 67 383.028 67.75 378.728 67.75ZM430.745 26.5C435.795 26.5 439.845 27.975 442.895 30.925C445.945 33.875 447.47 38.25 447.47 44.05V67H438.095V45.25C438.095 41.75 437.27 39.125 435.62 37.375C433.97 35.575 431.62 34.675 428.57 34.675C425.12 34.675 422.395 35.725 420.395 37.825C418.395 39.875 417.395 42.85 417.395 46.75V67H408.02V11.35H417.395V31.6C418.945 29.95 420.845 28.7 423.095 27.85C425.395 26.95 427.945 26.5 430.745 26.5ZM474.663 26.5C480.563 26.5 485.063 27.925 488.163 30.775C491.313 33.575 492.888 37.825 492.888 43.525V67H484.038V62.125C482.888 63.875 481.238 65.225 479.088 66.175C476.988 67.075 474.438 67.525 471.438 67.525C468.438 67.525 465.813 67.025 463.563 66.025C461.313 64.975 459.563 63.55 458.313 61.75C457.113 59.9 456.513 57.825 456.513 55.525C456.513 51.925 457.838 49.05 460.488 46.9C463.188 44.7 467.413 43.6 473.163 43.6H483.513V43C483.513 40.2 482.663 38.05 480.963 36.55C479.313 35.05 476.838 34.3 473.538 34.3C471.288 34.3 469.063 34.65 466.863 35.35C464.713 36.05 462.888 37.025 461.388 38.275L457.713 31.45C459.813 29.85 462.338 28.625 465.288 27.775C468.238 26.925 471.363 26.5 474.663 26.5ZM473.388 60.7C475.738 60.7 477.813 60.175 479.613 59.125C481.463 58.025 482.763 56.475 483.513 54.475V49.825H473.838C468.438 49.825 465.738 51.6 465.738 55.15C465.738 56.85 466.413 58.2 467.763 59.2C469.113 60.2 470.988 60.7 473.388 60.7ZM528.995 64.825C527.895 65.725 526.545 66.4 524.945 66.85C523.395 67.3 521.745 67.525 519.995 67.525C515.595 67.525 512.195 66.375 509.795 64.075C507.395 61.775 506.195 58.425 506.195 54.025V34.75H499.595V27.25H506.195V18.1H515.57V27.25H526.295V34.75H515.57V53.8C515.57 55.75 516.045 57.25 516.995 58.3C517.945 59.3 519.32 59.8 521.12 59.8C523.22 59.8 524.97 59.25 526.37 58.15L528.995 64.825ZM555.682 45.025L547.357 53.575V67H537.607V14.5H547.357V41.425L573.307 14.5H584.257L562.207 37.975L585.607 67H574.207L555.682 45.025ZM590.613 26.95H599.988V67H590.613V26.95ZM595.338 20.35C593.638 20.35 592.213 19.825 591.063 18.775C589.913 17.675 589.338 16.325 589.338 14.725C589.338 13.125 589.913 11.8 591.063 10.75C592.213 9.65 593.638 9.1 595.338 9.1C597.038 9.1 598.463 9.625 599.613 10.675C600.763 11.675 601.338 12.95 601.338 14.5C601.338 16.15 600.763 17.55 599.613 18.7C598.513 19.8 597.088 20.35 595.338 20.35ZM636.368 64.825C635.268 65.725 633.918 66.4 632.318 66.85C630.768 67.3 629.118 67.525 627.368 67.525C622.968 67.525 619.568 66.375 617.168 64.075C614.768 61.775 613.568 58.425 613.568 54.025V34.75H606.968V27.25H613.568V18.1H622.943V27.25H633.668V34.75H622.943V53.8C622.943 55.75 623.418 57.25 624.368 58.3C625.318 59.3 626.693 59.8 628.493 59.8C630.593 59.8 632.343 59.25 633.743 58.15L636.368 64.825Z" fill="#0F1F48"/>
</svg>
